<mxfile host="Electron" modified="2023-08-10T12:58:34.504Z" agent="Mozilla/5.0 (Windows NT 10.0; Win64; x64) AppleWebKit/537.36 (KHTML, like Gecko) draw.io/21.6.5 Chrome/114.0.5735.243 Electron/25.3.1 Safari/537.36" etag="mmAlRkTGMLFQUKicGz6I" version="21.6.5" type="device">
  <diagram name="Страница 1" id="0dwPXh_bRClVNZZaEX0i">
    <mxGraphModel dx="864" dy="516" grid="1" gridSize="10" guides="1" tooltips="1" connect="1" arrows="1" fold="1" page="1" pageScale="1" pageWidth="827" pageHeight="1169" math="0" shadow="0">
      <root>
        <mxCell id="0" />
        <mxCell id="1" parent="0" />
        <mxCell id="6p9G4mGVksOEYZs3aKe3-1" value="&lt;font color=&quot;#ffffff&quot; style=&quot;font-size: 24px;&quot;&gt;Data Warehouse&lt;/font&gt;" style="shape=cylinder3;whiteSpace=wrap;html=1;boundedLbl=1;backgroundOutline=1;size=15;fillColor=#6E9EFF;" vertex="1" parent="1">
          <mxGeometry x="290" y="200" width="210" height="160" as="geometry" />
        </mxCell>
        <mxCell id="6p9G4mGVksOEYZs3aKe3-2" value="Заявки" style="shape=cylinder3;whiteSpace=wrap;html=1;boundedLbl=1;backgroundOutline=1;size=15;fillColor=#B5739D;" vertex="1" parent="1">
          <mxGeometry x="100" y="110" width="90" height="100" as="geometry" />
        </mxCell>
        <mxCell id="6p9G4mGVksOEYZs3aKe3-3" value="Объекты&amp;nbsp;&lt;br&gt;в работе" style="shape=cylinder3;whiteSpace=wrap;html=1;boundedLbl=1;backgroundOutline=1;size=15;fillColor=#66FFFF;" vertex="1" parent="1">
          <mxGeometry x="15" y="257" width="105" height="83" as="geometry" />
        </mxCell>
        <mxCell id="6p9G4mGVksOEYZs3aKe3-4" value="Склад" style="shape=cylinder3;whiteSpace=wrap;html=1;boundedLbl=1;backgroundOutline=1;size=15;fillColor=#dae8fc;strokeColor=#6c8ebf;" vertex="1" parent="1">
          <mxGeometry x="95" y="380" width="100" height="90" as="geometry" />
        </mxCell>
        <mxCell id="6p9G4mGVksOEYZs3aKe3-27" style="edgeStyle=orthogonalEdgeStyle;rounded=0;orthogonalLoop=1;jettySize=auto;html=1;entryX=0.5;entryY=0;entryDx=0;entryDy=0;entryPerimeter=0;" edge="1" parent="1" source="6p9G4mGVksOEYZs3aKe3-5" target="6p9G4mGVksOEYZs3aKe3-1">
          <mxGeometry relative="1" as="geometry" />
        </mxCell>
        <mxCell id="6p9G4mGVksOEYZs3aKe3-5" value="" style="sketch=0;pointerEvents=1;shadow=0;dashed=0;html=1;strokeColor=none;fillColor=#505050;labelPosition=center;verticalLabelPosition=bottom;verticalAlign=top;outlineConnect=0;align=center;shape=mxgraph.office.services.excel_services;" vertex="1" parent="1">
          <mxGeometry x="575" y="90" width="120" height="110" as="geometry" />
        </mxCell>
        <mxCell id="6p9G4mGVksOEYZs3aKe3-6" value="" style="sketch=0;pointerEvents=1;shadow=0;dashed=0;html=1;strokeColor=none;fillColor=#505050;labelPosition=center;verticalLabelPosition=bottom;verticalAlign=top;outlineConnect=0;align=center;shape=mxgraph.office.communications.3rd_party_service;" vertex="1" parent="1">
          <mxGeometry x="670" y="220" width="110" height="106" as="geometry" />
        </mxCell>
        <mxCell id="6p9G4mGVksOEYZs3aKe3-26" style="edgeStyle=orthogonalEdgeStyle;rounded=0;orthogonalLoop=1;jettySize=auto;html=1;entryX=1;entryY=0.5;entryDx=0;entryDy=0;entryPerimeter=0;" edge="1" parent="1" source="6p9G4mGVksOEYZs3aKe3-7" target="6p9G4mGVksOEYZs3aKe3-1">
          <mxGeometry relative="1" as="geometry" />
        </mxCell>
        <mxCell id="6p9G4mGVksOEYZs3aKe3-7" value="&lt;font style=&quot;font-size: 36px;&quot;&gt;SQL&lt;/font&gt;" style="text;html=1;align=center;verticalAlign=middle;resizable=0;points=[];autosize=1;strokeColor=#6c8ebf;fillColor=#dae8fc;" vertex="1" parent="1">
          <mxGeometry x="690" y="340" width="100" height="60" as="geometry" />
        </mxCell>
        <mxCell id="6p9G4mGVksOEYZs3aKe3-25" style="edgeStyle=orthogonalEdgeStyle;rounded=0;orthogonalLoop=1;jettySize=auto;html=1;exitX=0.5;exitY=0;exitDx=0;exitDy=0;entryX=0.5;entryY=1;entryDx=0;entryDy=0;entryPerimeter=0;" edge="1" parent="1" source="6p9G4mGVksOEYZs3aKe3-8" target="6p9G4mGVksOEYZs3aKe3-1">
          <mxGeometry relative="1" as="geometry" />
        </mxCell>
        <mxCell id="6p9G4mGVksOEYZs3aKe3-8" value="" style="image;aspect=fixed;perimeter=ellipsePerimeter;html=1;align=center;shadow=0;dashed=0;fontColor=#4277BB;labelBackgroundColor=default;fontSize=12;spacingTop=3;image=img/lib/ibm/analytics/data_integration.svg;" vertex="1" parent="1">
          <mxGeometry x="580" y="460" width="110" height="110" as="geometry" />
        </mxCell>
        <mxCell id="6p9G4mGVksOEYZs3aKe3-9" value="&lt;font style=&quot;font-size: 36px; background-color: rgb(110, 158, 255);&quot;&gt;BI&lt;/font&gt;" style="text;html=1;align=center;verticalAlign=middle;resizable=0;points=[];autosize=1;strokeColor=none;fillColor=none;" vertex="1" parent="1">
          <mxGeometry x="600" y="585" width="60" height="60" as="geometry" />
        </mxCell>
        <mxCell id="6p9G4mGVksOEYZs3aKe3-24" style="edgeStyle=orthogonalEdgeStyle;rounded=0;orthogonalLoop=1;jettySize=auto;html=1;entryX=0.42;entryY=0.989;entryDx=0;entryDy=0;entryPerimeter=0;" edge="1" parent="1" source="6p9G4mGVksOEYZs3aKe3-11" target="6p9G4mGVksOEYZs3aKe3-4">
          <mxGeometry relative="1" as="geometry" />
        </mxCell>
        <mxCell id="6p9G4mGVksOEYZs3aKe3-11" value="" style="image;aspect=fixed;perimeter=ellipsePerimeter;html=1;align=center;shadow=0;dashed=0;fontColor=#4277BB;labelBackgroundColor=default;fontSize=12;spacingTop=3;image=img/lib/ibm/analytics/data_integration.svg;" vertex="1" parent="1">
          <mxGeometry x="150" y="550" width="110" height="110" as="geometry" />
        </mxCell>
        <mxCell id="6p9G4mGVksOEYZs3aKe3-12" value="&lt;font style=&quot;font-size: 36px; background-color: rgb(110, 158, 255);&quot;&gt;BI&lt;/font&gt;" style="text;html=1;align=center;verticalAlign=middle;resizable=0;points=[];autosize=1;strokeColor=none;fillColor=none;" vertex="1" parent="1">
          <mxGeometry x="175" y="670" width="60" height="60" as="geometry" />
        </mxCell>
        <mxCell id="6p9G4mGVksOEYZs3aKe3-13" value="" style="endArrow=classic;html=1;rounded=0;exitX=1;exitY=0.5;exitDx=0;exitDy=0;exitPerimeter=0;" edge="1" parent="1" source="6p9G4mGVksOEYZs3aKe3-2" target="6p9G4mGVksOEYZs3aKe3-1">
          <mxGeometry width="50" height="50" relative="1" as="geometry">
            <mxPoint x="390" y="170" as="sourcePoint" />
            <mxPoint x="440" y="120" as="targetPoint" />
            <Array as="points">
              <mxPoint x="240" y="160" />
              <mxPoint x="240" y="280" />
            </Array>
          </mxGeometry>
        </mxCell>
        <mxCell id="6p9G4mGVksOEYZs3aKe3-15" value="" style="endArrow=none;html=1;rounded=0;exitX=1;exitY=0.5;exitDx=0;exitDy=0;exitPerimeter=0;" edge="1" parent="1" source="6p9G4mGVksOEYZs3aKe3-4">
          <mxGeometry width="50" height="50" relative="1" as="geometry">
            <mxPoint x="390" y="370" as="sourcePoint" />
            <mxPoint x="240" y="280" as="targetPoint" />
            <Array as="points">
              <mxPoint x="240" y="425" />
            </Array>
          </mxGeometry>
        </mxCell>
        <mxCell id="6p9G4mGVksOEYZs3aKe3-19" value="" style="endArrow=none;html=1;rounded=0;exitX=1;exitY=0.5;exitDx=0;exitDy=0;exitPerimeter=0;" edge="1" parent="1" source="6p9G4mGVksOEYZs3aKe3-3">
          <mxGeometry width="50" height="50" relative="1" as="geometry">
            <mxPoint x="130" y="340" as="sourcePoint" />
            <mxPoint x="240" y="300" as="targetPoint" />
            <Array as="points">
              <mxPoint x="170" y="300" />
            </Array>
          </mxGeometry>
        </mxCell>
        <mxCell id="6p9G4mGVksOEYZs3aKe3-28" value="&lt;font style=&quot;font-size: 36px;&quot;&gt;Source&lt;/font&gt;" style="text;html=1;align=center;verticalAlign=middle;resizable=0;points=[];autosize=1;strokeColor=none;fillColor=none;" vertex="1" parent="1">
          <mxGeometry x="75" y="20" width="140" height="60" as="geometry" />
        </mxCell>
        <mxCell id="6p9G4mGVksOEYZs3aKe3-29" value="&lt;font style=&quot;font-size: 36px;&quot;&gt;Storage&lt;/font&gt;" style="text;html=1;align=center;verticalAlign=middle;resizable=0;points=[];autosize=1;strokeColor=none;fillColor=none;" vertex="1" parent="1">
          <mxGeometry x="310" y="20" width="150" height="60" as="geometry" />
        </mxCell>
        <mxCell id="6p9G4mGVksOEYZs3aKe3-30" value="&lt;font style=&quot;font-size: 36px;&quot;&gt;Business&lt;/font&gt;" style="text;html=1;align=center;verticalAlign=middle;resizable=0;points=[];autosize=1;strokeColor=none;fillColor=none;" vertex="1" parent="1">
          <mxGeometry x="550" y="20" width="170" height="60" as="geometry" />
        </mxCell>
        <mxCell id="6p9G4mGVksOEYZs3aKe3-31" value="" style="endArrow=none;html=1;rounded=0;" edge="1" parent="1">
          <mxGeometry width="50" height="50" relative="1" as="geometry">
            <mxPoint x="260" y="730" as="sourcePoint" />
            <mxPoint x="260" y="40" as="targetPoint" />
          </mxGeometry>
        </mxCell>
        <mxCell id="6p9G4mGVksOEYZs3aKe3-32" value="" style="endArrow=none;html=1;rounded=0;" edge="1" parent="1">
          <mxGeometry width="50" height="50" relative="1" as="geometry">
            <mxPoint x="520" y="730" as="sourcePoint" />
            <mxPoint x="520" y="40" as="targetPoint" />
          </mxGeometry>
        </mxCell>
      </root>
    </mxGraphModel>
  </diagram>
</mxfile>
